HIERARCHY
ROOT Hips
{
	OFFSET 0.00000 0.00000 0.00000
	CHANNELS 6 Xposition Yposition Zposition Zrotation Yrotation Xrotation 
	JOINT LHipJoint
	{
		OFFSET 0 0 0
		CHANNELS 3 Zrotation Yrotation Xrotation
		JOINT LeftHip
		{
			OFFSET 1.75344 -1.53157 0.77399
			CHANNELS 3 Zrotation Yrotation Xrotation
			JOINT LeftKnee
			{
				OFFSET 2.25415 -6.19323 0.00000
				CHANNELS 3 Zrotation Yrotation Xrotation
				JOINT LeftAnkle
				{
					OFFSET 2.30342 -6.32861 0.00000
					CHANNELS 3 Zrotation Yrotation Xrotation
					JOINT LeftToe
					{
						OFFSET 0.10958 -0.30108 1.49206
						CHANNELS 3 Zrotation Yrotation Xrotation
						End Site
						{
							OFFSET 0.00000 -0.00000 0.77783
						}
					}
				}
			}
		}
	}
	JOINT RHipJoint
	{
		OFFSET 0 0 0
		CHANNELS 3 Zrotation Yrotation Xrotation
		JOINT RightHip
		{
			OFFSET -1.81912 -1.53156 0.77399
			CHANNELS 3 Zrotation Yrotation Xrotation
			JOINT RightKnee
			{
				OFFSET -2.22882 -6.12365 0.00000
				CHANNELS 3 Zrotation Yrotation Xrotation
				JOINT RightAnkle
				{
					OFFSET -2.21943 -6.09785 0.00000
					CHANNELS 3 Zrotation Yrotation Xrotation
					JOINT RightToe
					{
						OFFSET -0.18931 -0.52012 1.59379
						CHANNELS 3 Zrotation Yrotation Xrotation
						End Site
						{
							OFFSET -0.00000 -0.00000 0.84686
						}
					}
				}
			}
		}
	}
	JOINT lowerback
	{
		OFFSET 0 0 0
		CHANNELS 3 Zrotation Yrotation Xrotation
		JOINT Chest
		{
			OFFSET -0.00200 1.66634 -0.14248
			CHANNELS 3 Zrotation Yrotation Xrotation
			JOINT Chest2
			{
				OFFSET -0.00875 1.64542 0.09514
				CHANNELS 3 Zrotation Yrotation Xrotation
				JOINT lowerneck
				{
					OFFSET 0 0 0
					CHANNELS 3 Zrotation Yrotation Xrotation
					JOINT Neck
					{
						OFFSET 0.02257 1.59605 0.00839
						CHANNELS 3 Zrotation Yrotation Xrotation
						JOINT Head
						{
							OFFSET -0.10214 1.57530 -0.23335
							CHANNELS 3 Zrotation Yrotation Xrotation
							End Site
							{
								OFFSET -0.03588 1.60717 -0.08062
							}
						}
					}
				}
				JOINT LeftCollar
				{
					OFFSET 0 0 0
					CHANNELS 3 Zrotation Yrotation Xrotation
					JOINT LeftShoulder
					{
						OFFSET 2.54983 1.10186 0.40078
CHANNELS 3 Zrotation Xrotation Yrotation
						JOINT LeftElbow
						{
OFFSET 0 -4.288400 0.000000
CHANNELS 3 Zrotation Xrotation Yrotation
							JOINT LeftWrist
							{
OFFSET 0 -3.065520 -0.000000
CHANNELS 3 Zrotation Xrotation Yrotation
								JOINT lhand
								{
									OFFSET 0 0 0
CHANNELS 3 Zrotation Xrotation Yrotation
									JOINT LFingers
									{
OFFSET 0 -0.753040 0.000000
CHANNELS 3 Zrotation Xrotation Yrotation
										End Site
										{
OFFSET 0 -0.607120 0.000000
										}
									}
								}
								JOINT LThumb
								{
OFFSET 0 0.000000 0.000000
CHANNELS 3 Zrotation Xrotation Yrotation
									End Site
									{
OFFSET 0 -0.616390 0.616390
									}
								}
							}
						}
					}
				}
				JOINT RightCollar
				{
					OFFSET 0 0 0
					CHANNELS 3 Zrotation Yrotation Xrotation
					JOINT RightShoulder
					{
						OFFSET -2.60909 1.35448 0.21802
CHANNELS 3 Zrotation Xrotation Yrotation
						JOINT RightElbow
						{
OFFSET 0 -4.521720 -0.000000
CHANNELS 3 Zrotation Xrotation Yrotation
							JOINT RightWrist
							{
OFFSET 0 -2.891400 0.000000
CHANNELS 3 Zrotation Xrotation Yrotation
								JOINT rhand
								{
									OFFSET 0 0 0
CHANNELS 3 Zrotation Xrotation Yrotation
									JOINT RFingers
									{
OFFSET 0 -0.680540 0.000000
CHANNELS 3 Zrotation Xrotation Yrotation
										End Site
										{
OFFSET 0 -0.548670 0.000000
										}
									}
								}
								JOINT RThumb
								{
OFFSET 0 0.000000 0.000000
CHANNELS 3 Zrotation Xrotation Yrotation
									End Site
									{
OFFSET 0 -0.557050 0.557050
									}
								}
							}
						}
					}
				}
			}
		}
	}
}
MOTION
Frames: 10
Frame Time: 0.008333333333333333
2.099570 15.173243 -36.900293 -527.536669 85.890333 557.981631 0.000000 0.000000 0.000000 -13.084196 -18.640822 -34.228553 6.879046 15.222037 48.402743 1.008899 9.443868 -24.600248 1.602832 -7.984563 -22.667140 0.000000 0.000000 0.000000 38.672454 17.770531 8.808541 -0.523162 -4.631590 12.861389 1.233852 -22.747283 -21.831884 -0.697969 -5.340306 14.881795 0.392472 1.726879 8.819573 -0.312575 2.346028 -3.333723 -0.926572 1.114613 -8.455841 -12.846419 -7.876806 -1.821122 16.155749 -10.922961 4.431182 6.566198 -5.243355 3.230180 0.000000 0.000000 0.000000 7.186111 26.846794 -27.940967 23.118693 -34.218164 7.205073 -5.551384 16.792839 27.628937 0.000000 0.000000 0.000000 -7.125000 0.000000 0.000000 -20.941084 3.722116 -21.019574 0.000000 0.000000 0.000000 -9.336458 -3.802718 39.914353 -22.337787 -33.356024 -6.770922 -17.092895 30.825078 52.820189 0.000000 0.000000 0.000000 7.125000 0.000000 0.000000 -11.170332 -7.517033 -170.193759
2.686331 15.201759 -36.956207 -520.302873 87.644884 565.187137 0.000000 0.000000 0.000000 -12.245119 -22.126764 -34.021346 4.388486 12.657088 38.102988 1.019520 9.811628 -24.986220 1.323279 -7.283176 -20.558012 0.000000 0.000000 0.000000 37.237405 12.346543 12.081071 -0.140954 -2.405246 6.627811 0.945434 -19.200351 -16.964063 -0.387407 -3.985750 11.038058 0.594972 1.881920 8.517596 -0.372442 2.569840 -3.168386 -1.122139 1.215093 -8.086294 -12.444966 -7.432259 -1.891256 15.682626 -10.272601 4.208541 6.399720 -4.930987 3.031630 0.000000 0.000000 0.000000 6.563929 27.864519 -28.369112 22.453797 -33.486079 6.834554 -6.840321 17.581056 27.213212 0.000000 0.000000 0.000000 -7.125000 0.000000 0.000000 -21.676872 4.147347 -21.699300 0.000000 0.000000 0.000000 -9.106236 -6.376427 44.118464 -24.151162 -35.323480 -7.793870 -20.717432 31.133678 52.610453 0.000000 0.000000 0.000000 7.125000 0.000000 0.000000 -9.684005 -6.753676 -171.392969
3.278316 15.179587 -37.012573 -446.329997 88.335274 639.322846 0.000000 0.000000 0.000000 -7.564425 -29.977234 -33.327903 2.848156 10.440841 30.420630 1.296856 12.906242 -29.608413 1.340274 -7.293169 -20.603423 0.000000 0.000000 0.000000 38.171990 9.902132 17.960629 0.000000 0.000000 0.000000 0.952086 -18.224787 -14.008326 -0.443529 -4.273180 11.846539 1.479146 2.364934 7.959508 -0.138873 3.329386 -3.127971 -1.455586 1.555262 -7.668071 -12.114097 -7.080543 -1.868264 15.496230 -9.778138 4.059159 6.324614 -4.689106 2.885787 0.000000 0.000000 0.000000 5.939544 28.324589 -28.080015 21.722887 -32.662356 6.435725 -7.879957 19.401180 27.283790 0.000000 0.000000 0.000000 -7.125000 0.000000 0.000000 -22.243732 4.101635 -22.388577 0.000000 0.000000 0.000000 -8.786822 -8.202759 46.746148 -26.364365 -37.564242 -9.109642 -18.325801 29.333903 52.719823 0.000000 0.000000 0.000000 7.125000 0.000000 0.000000 -10.660800 -7.291796 -170.610054
3.890457 15.139679 -37.067875 -410.690095 86.865088 674.689174 0.000000 0.000000 0.000000 1.800248 -47.502610 -31.909646 2.197051 9.264954 26.627703 3.410843 19.876470 -45.776967 0.041982 1.183638 3.256477 0.000000 0.000000 0.000000 38.651888 8.188503 20.303129 0.000000 0.000000 0.000000 0.878625 -17.547376 -13.497988 -0.391271 -4.009320 11.103780 2.518372 2.755885 7.745245 -0.076525 3.960762 -2.929545 -2.036890 1.825531 -7.248097 -11.472443 -6.934412 -2.174723 15.152944 -9.558828 4.128178 6.114504 -4.563829 2.877342 0.000000 0.000000 0.000000 6.208564 28.545590 -28.951359 21.562347 -32.478898 6.349224 -8.617466 19.408011 26.271551 0.000000 0.000000 0.000000 -7.125000 0.000000 0.000000 -22.720156 5.056935 -22.519646 0.000000 0.000000 0.000000 -8.364346 -9.336503 49.538654 -28.695558 -39.748020 -10.565773 -19.492347 28.998879 51.990564 0.000000 0.000000 0.000000 7.125000 0.000000 0.000000 -10.075975 -7.655745 -171.215894
4.516815 15.099819 -37.107805 -397.495912 84.902988 687.764793 0.000000 0.000000 0.000000 6.531000 -54.504040 -32.094542 2.051624 8.972694 25.709999 5.353792 21.314787 -53.661336 0.778178 5.620897 15.691420 0.000000 0.000000 0.000000 38.597195 6.776515 22.659535 0.000000 0.000000 0.000000 0.721960 -15.831464 -11.818607 -0.080051 -1.806474 4.971642 3.232472 3.231397 7.509431 0.116054 4.677331 -2.872324 -2.306296 2.157447 -6.977497 -10.994710 -6.789353 -2.195858 14.723692 -9.321387 3.794425 5.919221 -4.455821 2.706432 0.000000 0.000000 0.000000 6.111332 28.471046 -28.888886 21.354659 -32.239907 6.238077 -7.189992 17.626832 25.443520 0.000000 0.000000 0.000000 -7.125000 0.000000 0.000000 -21.989086 5.811932 -21.323726 0.000000 0.000000 0.000000 -8.018514 -9.539189 51.132204 -30.746498 -41.523723 -11.901811 -17.309288 27.343706 51.362821 0.000000 0.000000 0.000000 7.125000 0.000000 0.000000 -10.886474 -8.810668 -170.736280
5.170530 15.094121 -37.143109 -386.774394 83.278743 698.177666 0.000000 0.000000 0.000000 -1.936956 -41.834084 -29.497312 2.002240 8.870630 25.391507 1.874837 18.977233 -38.295853 0.092336 -1.713699 -4.722071 0.000000 0.000000 0.000000 37.174910 5.229855 25.253979 0.000000 0.000000 0.000000 0.497504 -13.228069 -9.885993 -0.217426 -3.001685 8.283383 3.289165 3.364924 7.527921 0.064365 4.865932 -3.058251 -2.424635 2.239686 -7.167064 -10.787920 -6.285531 -2.217752 14.567867 -8.670058 4.208878 5.874040 -4.124573 2.728280 0.000000 0.000000 0.000000 5.677573 28.306803 -25.843129 20.707278 -31.484945 5.896357 -7.091328 19.489611 27.380169 0.000000 0.000000 0.000000 -7.125000 0.000000 0.000000 -21.805022 3.996667 -21.914938 0.000000 0.000000 0.000000 -7.344756 -8.686564 53.300862 -32.374657 -42.843226 -12.995126 -17.736786 27.350630 50.033192 0.000000 0.000000 0.000000 7.125000 0.000000 0.000000 -10.530199 -9.936497 -171.293690
5.875823 15.064560 -37.169359 -380.526818 81.999749 704.029192 0.000000 0.000000 0.000000 -8.732820 -32.032336 -27.315739 2.177105 9.225536 26.503496 0.832822 15.260162 -28.662336 1.338881 -7.325773 -20.684551 0.000000 0.000000 0.000000 35.356781 3.398057 27.620163 0.000000 0.000000 0.000000 0.374211 -10.901337 -5.826149 -0.146669 -2.467925 6.800806 3.394178 3.546142 7.204064 -0.159401 5.102603 -3.357416 -2.735283 2.341453 -7.256836 -10.333928 -5.926763 -1.756056 14.393726 -8.253269 4.607694 5.781580 -3.921413 2.685643 0.000000 0.000000 0.000000 5.770255 27.798715 -23.113164 19.760602 -30.352717 5.409878 -6.482609 20.561010 28.245975 0.000000 0.000000 0.000000 -7.125000 0.000000 0.000000 -21.421189 3.169959 -21.813109 0.000000 0.000000 0.000000 -6.575128 -6.265909 54.170107 -33.823937 -43.953838 -13.990799 -18.099290 27.080529 48.630048 0.000000 0.000000 0.000000 7.125000 0.000000 0.000000 -10.185240 -11.153343 -171.844004
6.637593 15.134094 -37.209599 -374.995025 81.571320 708.997142 0.000000 0.000000 0.000000 -11.435812 -33.142856 -23.694014 2.272944 9.412820 27.095353 0.239187 15.363954 -24.071574 0.664688 -5.207000 -14.501525 0.000000 0.000000 0.000000 33.024663 1.441674 28.114790 -0.037247 -0.929568 2.557470 0.237346 -9.261428 0.294741 -0.013293 0.194012 -0.533370 3.383486 3.409681 6.937470 -0.390517 4.908328 -3.748784 -2.946298 2.231237 -7.515675 -10.108943 -5.703908 -1.184394 14.494244 -8.039008 5.095427 5.802902 -3.815178 2.699140 0.000000 0.000000 0.000000 5.882091 27.038171 -20.798634 18.422308 -28.693672 4.750738 -5.567568 21.746875 27.836028 0.000000 0.000000 0.000000 -7.125000 0.000000 0.000000 -20.939439 3.527954 -21.097676 0.000000 0.000000 0.000000 -6.247254 -2.837527 54.646754 -34.484104 -44.440216 -14.450937 -19.388061 26.339231 47.569066 0.000000 0.000000 0.000000 7.125000 0.000000 0.000000 -9.450320 -11.807809 -172.570150
7.391258 15.204929 -37.240382 -361.600352 81.700224 721.924352 0.000000 0.000000 0.000000 -16.414386 -29.751949 -20.981092 2.286716 9.439315 27.179411 -0.205777 14.284056 -17.791370 0.178797 -2.722668 -7.507586 0.000000 0.000000 0.000000 29.787073 1.075248 19.834001 -1.296191 -7.190329 20.290864 0.067746 -7.174600 3.199525 -0.002089 -0.255812 0.703029 1.727109 3.091339 6.455931 -0.793491 4.282419 -3.959700 -2.349053 1.997044 -7.590289 -9.719876 -6.145517 -2.717568 13.525490 -8.702108 7.444610 5.337236 -4.056674 3.674741 0.000000 0.000000 0.000000 5.757545 24.832814 -17.618747 16.531807 -26.236096 3.878239 -6.001655 26.570850 27.686291 0.000000 0.000000 0.000000 -7.125000 0.000000 0.000000 -21.187072 3.681999 -21.323054 0.000000 0.000000 0.000000 -6.468579 1.106570 54.322937 -34.362290 -44.351225 -14.365753 -18.078072 25.498137 48.687838 0.000000 0.000000 0.000000 7.125000 0.000000 0.000000 -10.203599 -11.104774 -171.819374
8.086888 15.291871 -37.237595 -354.347593 81.240059 729.247519 0.000000 0.000000 0.000000 -19.594476 -26.486206 -18.837507 2.241792 9.352508 26.904354 -0.085021 12.259145 -16.268392 0.189990 -2.659045 -7.338271 0.000000 0.000000 0.000000 26.662591 1.010636 11.226165 -3.878864 -11.979640 35.683800 -0.349456 -6.568219 10.778506 -0.013613 -0.708430 1.946949 0.546959 2.712874 6.042719 -0.833943 3.660730 -4.112378 -1.640064 1.754126 -7.613467 -9.689760 -5.875729 -3.633622 13.277293 -8.326019 8.214316 5.251799 -3.832774 4.001619 0.000000 0.000000 0.000000 5.908206 22.056356 -16.314461 15.654833 -25.050315 3.498509 -7.907885 33.617845 26.595025 0.000000 0.000000 0.000000 -7.125000 0.000000 0.000000 -22.306279 4.745839 -22.173384 0.000000 0.000000 0.000000 -7.031112 4.217088 54.140607 -31.852648 -42.427044 -12.642101 -21.518122 27.049679 49.683312 0.000000 0.000000 0.000000 7.125000 0.000000 0.000000 -8.842518 -9.240986 -172.600865
